<?xml version="1.0" encoding="UTF-8"?>
<svg version="1.1" xmlns="http://www.w3.org/2000/svg" width="28" height="28">
<path d="M0 0 C0 0.66 0 1.32 0 2 C0.62519531 2.21914062 1.25039063 2.43828125 1.89453125 2.6640625 C4.79135315 4.50212018 4.9241636 6.08338753 5.6875 9.375 C5.91824219 10.33148438 6.14898438 11.28796875 6.38671875 12.2734375 C6.58910156 13.17320313 6.79148437 14.07296875 7 15 C7.31904297 16.13308594 7.31904297 16.13308594 7.64453125 17.2890625 C7.76183594 17.85367187 7.87914063 18.41828125 8 19 C7 20 7 20 5.05053711 20.11352539 C4.2178833 20.10828857 3.38522949 20.10305176 2.52734375 20.09765625 C1.62822266 20.09443359 0.72910156 20.09121094 -0.19726562 20.08789062 C-1.14279297 20.07951172 -2.08832031 20.07113281 -3.0625 20.0625 C-4.01189453 20.05798828 -4.96128906 20.05347656 -5.93945312 20.04882812 C-8.29303065 20.0370011 -10.64648477 20.02052025 -13 20 C-13.625 18.1875 -13.625 18.1875 -14 16 C-13.01 14.515 -13.01 14.515 -12 13 C-11.48238249 10.69536966 -11.11806762 8.39258703 -10.7578125 6.05859375 C-10 4 -10 4 -7.9296875 2.72265625 C-7.29289063 2.48417969 -6.65609375 2.24570313 -6 2 C-6 1.34 -6 0.68 -6 0 C-3.50907189 -1.24546405 -2.58919267 -0.7767578 0 0 Z " fill="#DAE3ED" transform="translate(17,2)"/>
<path d="M0 0 C2.64 0 5.28 0 8 0 C7.34 1.32 6.68 2.64 6 4 C4.35 3.67 2.7 3.34 1 3 C0.67 2.01 0.34 1.02 0 0 Z " fill="#DAE3ED" transform="translate(10,23)"/>
</svg>
